<?xml version="1.0" encoding="iso-8859-1"?>
<!-- Uploaded to: SVG Repo, www.svgrepo.com, Generator: SVG Repo Mixer Tools -->
<!DOCTYPE svg PUBLIC "-//W3C//DTD SVG 1.1//EN" "http://www.w3.org/Graphics/SVG/1.1/DTD/svg11.dtd">
<svg fill="#fff" height="800px" width="800px" version="1.1" id="Capa_1"
	xmlns="http://www.w3.org/2000/svg" xmlns:xlink="http://www.w3.org/1999/xlink"
	viewBox="0 0 181.115 181.115" xml:space="preserve">
<path d="M11.688,181.115c-0.641,0-1.281-0.245-1.768-0.732l-9.188-9.188c-0.943-0.943-0.979-2.459-0.084-3.447l13.332-14.699
	l-9.001-9.001c-2.364-2.364-2.364-6.21,0-8.574l7.404-7.404c0.255-0.255,0.527-0.484,0.816-0.687l-4.397-4.397
	c-2.363-2.364-2.363-6.209-0.001-8.573l10.66-10.659c1.146-1.146,2.668-1.776,4.287-1.776s3.142,0.631,4.287,1.776l17.536,17.536
	l75.716-75.716l-17.536-17.536c-1.146-1.145-1.776-2.667-1.776-4.287s0.631-3.142,1.776-4.287l10.659-10.659
	c1.146-1.146,2.668-1.776,4.287-1.776c1.618,0,3.141,0.63,4.286,1.775l4.398,4.399c0.201-0.288,0.43-0.562,0.686-0.818l7.404-7.404
	c1.146-1.146,2.668-1.776,4.287-1.776s3.143,0.631,4.287,1.777l9.001,9l14.699-13.332c0.988-0.895,2.506-0.859,3.447,0.084
	l9.188,9.188c0.943,0.943,0.979,2.459,0.084,3.447l-13.332,14.699l9.001,9.001c2.364,2.364,2.364,6.21,0,8.574l-7.404,7.404
	c-0.255,0.255-0.527,0.484-0.816,0.687l4.397,4.397c2.363,2.364,2.363,6.209,0.001,8.573l-10.66,10.659
	c-1.146,1.146-2.668,1.776-4.287,1.776s-3.142-0.631-4.287-1.776l-17.536-17.536l-75.716,75.716l17.536,17.536
	c1.146,1.145,1.776,2.667,1.776,4.287s-0.631,3.142-1.776,4.287l-10.659,10.659c-1.146,1.146-2.668,1.776-4.287,1.776
	c-1.618,0-3.141-0.63-4.286-1.775l-4.398-4.399c-0.201,0.288-0.43,0.562-0.686,0.818l-7.404,7.404
	c-1.146,1.146-2.668,1.776-4.287,1.776s-3.143-0.631-4.287-1.777l-9.001-9l-14.699,13.332
	C12.891,180.9,12.289,181.115,11.688,181.115z M5.951,169.342l5.821,5.821l12.755-11.568l-7.008-7.008L5.951,169.342z
	 M16.671,131.292c-0.164,0-0.48,0.04-0.752,0.311l-7.404,7.404c-0.414,0.415-0.414,1.089,0,1.503l32.09,32.089
	c0.271,0.271,0.587,0.312,0.751,0.312s0.48-0.041,0.752-0.312l7.404-7.405c0.411-0.412,0.414-1.083,0.006-1.497l-32.096-32.096
	C17.15,131.332,16.835,131.292,16.671,131.292z M42.103,149.214l19.563,19.563c0.271,0.271,0.587,0.311,0.751,0.311
	c0.165,0,0.481-0.041,0.752-0.312l10.659-10.659c0.271-0.271,0.312-0.587,0.312-0.751s-0.041-0.48-0.312-0.751L24.5,107.287
	c-0.271-0.271-0.587-0.311-0.751-0.311c-0.165,0-0.481,0.041-0.752,0.312l-10.659,10.659c-0.414,0.414-0.414,1.088,0.001,1.503
	L42.103,149.214z M49.107,124.823l7.185,7.185l75.716-75.716l-7.185-7.185L49.107,124.823z M118.698,12.027
	c-0.165,0-0.481,0.041-0.752,0.312l-10.659,10.659c-0.271,0.271-0.312,0.587-0.312,0.751s0.041,0.48,0.312,0.751l49.328,49.328
	c0.271,0.271,0.587,0.311,0.751,0.311c0.165,0,0.481-0.041,0.752-0.312l10.659-10.659c0.414-0.414,0.414-1.088-0.001-1.503
	l-49.327-49.328C119.179,12.068,118.862,12.027,118.698,12.027z M142.547,28.365l21.146,21.146c0.271,0.271,0.587,0.312,0.751,0.312
	s0.48-0.041,0.752-0.312l7.404-7.404c0.414-0.415,0.414-1.089,0-1.503l-32.09-32.089c-0.271-0.271-0.587-0.312-0.751-0.312
	s-0.48,0.041-0.752,0.312l-7.404,7.405c-0.411,0.412-0.414,1.083-0.006,1.497L142.547,28.365z M156.588,17.52l7.008,7.008
	l11.568-12.755l-5.821-5.821L156.588,17.52z"/>
</svg>